<?xml version="1.0" encoding="UTF-8" ?>
<!DOCTYPE svg PUBLIC "-//W3C//DTD SVG 1.1//EN" "http://www.w3.org/Graphics/SVG/1.1/DTD/svg11.dtd">
<svg width="1132pt" height="904pt" viewBox="0 0 1132 904" version="1.1" xmlns="http://www.w3.org/2000/svg">
<g id="#ffffffff">
<path fill="#ffffff" opacity="1.00" d=" M 0.00 0.00 L 1132.00 0.00 L 1132.00 904.00 L 0.00 904.00 L 0.00 0.00 M 527.03 21.32 C 512.85 22.16 498.77 24.23 484.83 26.88 C 469.94 29.79 455.05 32.88 440.46 37.10 C 427.57 40.19 415.30 45.26 402.82 49.64 C 396.00 52.77 388.74 54.84 382.13 58.42 C 381.54 58.06 380.96 57.71 380.38 57.36 C 380.35 57.87 380.28 58.87 380.25 59.38 C 368.29 64.33 356.87 70.50 345.47 76.63 C 338.35 81.09 330.78 84.81 323.93 89.70 C 315.01 96.16 305.55 101.87 296.98 108.81 C 289.77 114.62 282.14 119.95 275.45 126.38 C 271.86 129.15 268.80 132.57 265.00 135.08 C 267.62 139.10 271.64 141.83 275.01 145.15 C 287.40 157.41 299.72 169.75 312.24 181.89 C 319.09 189.69 327.26 196.21 333.93 204.18 C 417.63 204.23 501.34 204.18 585.04 204.18 C 602.72 204.37 620.45 203.83 638.06 205.74 C 653.63 207.53 669.16 210.26 684.17 214.84 C 698.39 219.75 712.66 224.80 725.72 232.37 C 733.23 236.75 740.90 240.91 747.87 246.14 C 757.08 253.12 766.35 260.15 774.23 268.66 C 781.63 276.75 789.15 284.88 794.77 294.35 C 808.53 314.33 817.86 337.24 822.74 360.96 C 827.53 388.72 826.86 417.51 820.10 444.86 C 813.12 470.75 802.07 495.68 786.39 517.49 C 766.58 545.39 740.47 568.73 710.77 585.70 C 697.94 594.02 683.67 599.64 669.72 605.74 C 660.86 609.09 651.83 612.03 642.72 614.62 C 642.86 634.36 642.63 654.10 642.38 673.84 C 671.25 673.22 700.14 673.80 729.02 673.63 C 772.02 673.60 815.02 673.65 858.03 673.62 C 864.87 673.41 871.81 674.07 878.59 673.40 C 884.46 668.67 888.93 662.49 893.87 656.85 C 896.15 654.11 898.69 651.59 900.87 648.77 C 909.24 637.49 918.57 626.87 925.75 614.75 C 933.16 604.71 939.04 593.72 945.12 582.86 C 949.14 576.04 952.46 568.85 955.70 561.64 C 966.64 538.98 973.81 514.78 980.27 490.53 C 986.35 462.78 989.59 434.36 989.26 405.93 C 989.53 358.39 979.36 311.10 961.58 267.12 C 955.96 254.62 951.00 241.77 943.86 230.03 C 928.37 201.38 909.04 174.88 886.93 151.01 C 878.80 142.80 870.97 134.28 862.02 126.95 C 854.66 119.55 845.95 113.75 837.94 107.12 C 827.96 99.36 817.27 92.60 806.83 85.50 C 792.79 77.33 778.78 69.02 763.87 62.48 C 748.91 54.92 733.07 49.33 717.25 43.88 C 695.72 36.06 673.27 31.18 650.87 26.56 C 610.03 19.67 568.30 17.65 527.03 21.32 M 163.08 218.44 C 157.28 220.53 151.74 224.32 149.04 230.02 C 145.85 236.88 147.14 244.68 147.07 251.99 C 147.32 370.01 147.07 488.04 147.13 606.06 C 147.03 628.66 147.37 651.26 146.82 673.85 C 154.22 673.58 161.63 673.65 169.03 673.61 C 199.42 673.74 229.81 673.41 260.19 673.89 C 260.53 661.62 260.31 649.34 260.34 637.06 C 260.28 579.70 260.21 522.35 260.21 464.99 C 260.01 449.18 260.73 433.34 259.25 417.57 C 261.24 418.94 262.96 420.68 264.29 422.71 C 267.42 427.41 271.59 431.29 275.20 435.61 C 293.95 459.24 314.20 481.61 333.21 505.02 C 340.90 513.66 347.84 522.94 355.65 531.48 C 359.07 535.40 361.80 539.88 365.49 543.57 C 396.83 580.84 428.64 617.72 459.70 655.21 C 470.21 667.05 480.04 679.48 490.73 691.17 C 495.08 695.60 499.51 700.43 505.53 702.52 C 511.39 704.91 517.83 704.65 524.04 704.63 C 538.01 704.65 551.99 704.76 565.97 704.80 C 575.31 704.57 584.78 705.32 593.96 703.24 C 606.81 699.76 617.44 689.40 621.68 676.84 C 625.34 667.68 624.67 657.70 624.73 648.06 C 624.36 618.70 624.98 589.35 624.79 559.99 C 625.04 456.33 624.79 352.68 624.74 249.02 C 624.56 242.23 625.80 234.92 622.29 228.72 C 619.89 223.76 614.91 220.81 610.00 218.80 C 597.44 216.60 584.65 218.69 572.01 217.93 C 546.93 218.40 521.83 218.09 496.75 218.33 C 497.08 224.55 496.78 230.77 496.95 236.99 C 497.02 311.01 496.93 385.02 496.86 459.06 C 497.15 477.84 496.52 496.64 497.24 515.41 C 492.78 511.88 490.29 506.58 486.25 502.66 C 479.57 496.00 474.17 488.23 467.66 481.42 C 456.84 468.56 445.82 455.86 434.99 443.00 C 400.67 402.29 365.71 362.14 331.21 321.57 C 324.61 313.25 317.19 305.62 310.77 297.16 C 306.83 292.54 302.59 288.18 298.94 283.32 C 286.63 268.87 274.27 254.47 262.02 239.97 C 256.32 233.72 250.89 226.66 242.92 223.17 C 235.61 220.29 228.02 217.73 220.08 217.54 C 207.06 217.33 194.02 217.62 181.00 217.52 C 175.02 217.55 168.98 217.37 163.08 218.44 M 378.49 254.23 C 385.79 262.14 392.77 270.35 400.08 278.26 C 400.86 279.04 401.59 280.03 402.79 280.18 C 414.31 279.80 426.04 278.80 437.46 280.83 C 437.52 271.78 437.34 262.73 437.50 253.69 C 417.85 254.88 398.15 253.11 378.49 254.23 M 415.57 295.93 C 416.37 297.23 417.17 298.54 418.02 299.82 C 423.61 305.20 428.61 311.15 433.44 317.22 C 434.61 318.47 435.78 319.72 437.02 320.91 C 437.20 312.33 437.57 303.75 437.54 295.17 L 437.00 295.77 C 429.86 295.49 422.71 295.70 415.57 295.93 M 51.83 714.91 C 41.35 718.40 31.22 724.61 25.10 734.02 C 14.43 749.35 13.14 770.93 22.50 787.19 C 28.68 799.96 41.82 807.81 55.04 811.58 C 67.48 813.92 81.00 813.49 92.44 807.57 C 98.27 805.15 103.35 801.28 107.51 796.56 C 107.62 796.19 107.83 795.45 107.94 795.08 C 105.57 791.79 102.39 789.20 99.53 786.37 C 98.12 785.27 96.86 783.44 94.84 783.71 C 88.52 790.73 79.70 796.35 69.96 796.25 C 63.71 796.37 57.69 794.06 52.69 790.40 C 43.13 784.61 38.85 772.83 39.14 762.06 C 38.95 753.99 41.25 745.70 46.32 739.33 C 53.90 730.35 66.93 726.97 78.08 730.31 C 84.65 732.44 91.36 735.80 95.12 741.87 C 99.84 738.04 104.37 733.81 108.01 728.93 C 94.03 713.91 71.21 708.60 51.83 714.91 M 207.47 713.59 C 193.42 716.05 180.34 724.61 173.27 737.12 C 167.14 746.79 165.61 758.78 167.14 769.98 C 168.26 783.74 176.46 796.49 187.94 804.00 C 199.68 812.46 215.06 814.28 229.05 811.87 C 240.98 809.67 251.76 802.82 259.24 793.34 C 268.04 781.36 270.69 765.61 267.97 751.16 C 265.71 739.70 259.18 729.01 249.44 722.45 C 237.40 714.04 221.90 710.49 207.47 713.59 M 737.34 713.86 C 729.56 729.68 723.72 746.33 716.21 762.27 C 712.76 771.30 709.27 780.32 705.24 789.11 C 703.20 794.57 700.88 800.26 696.39 804.20 C 695.03 805.62 693.05 805.78 691.23 805.96 C 691.20 807.77 691.30 809.60 691.47 811.41 C 702.18 811.27 712.90 811.21 723.61 811.46 C 723.76 809.62 723.69 807.78 723.36 805.98 C 720.07 805.67 713.45 804.56 715.24 799.87 C 716.53 795.24 717.83 790.25 720.10 786.16 C 731.09 786.28 742.12 786.25 753.13 786.04 C 754.56 786.07 756.56 786.40 756.77 788.16 C 758.17 792.90 760.75 797.22 761.84 802.05 C 761.73 805.40 757.54 805.92 755.10 807.01 C 755.21 808.45 755.38 809.91 755.59 811.36 C 768.60 811.10 781.61 811.23 794.63 811.29 C 794.69 809.76 794.74 808.24 794.76 806.73 C 791.03 805.78 787.64 803.61 785.61 800.31 C 780.02 789.74 776.44 778.28 771.34 767.49 C 765.88 754.80 760.25 742.19 754.77 729.51 C 752.82 724.09 749.50 719.23 748.19 713.57 C 744.58 712.83 740.93 713.36 737.34 713.86 M 333.18 714.36 C 332.76 715.96 332.64 717.62 332.66 719.29 C 334.85 719.99 337.36 720.28 339.04 722.02 C 340.93 724.20 340.46 727.33 340.20 729.98 C 338.87 736.90 338.68 743.97 337.62 750.93 C 336.21 766.67 333.87 782.31 332.46 798.05 C 331.42 802.97 327.17 806.04 322.58 807.37 C 322.90 808.70 323.24 810.03 323.59 811.38 C 334.57 811.33 345.55 811.15 356.53 811.34 C 356.56 809.78 356.57 808.22 356.58 806.67 C 354.02 805.85 351.10 805.69 348.97 803.91 C 346.09 799.52 347.28 793.96 347.50 789.05 C 348.43 780.00 348.99 770.92 349.82 761.86 C 350.63 755.46 351.00 748.99 350.63 742.55 C 353.77 746.96 356.05 751.92 358.07 756.94 C 361.59 765.37 366.56 773.07 370.62 781.24 C 375.34 791.03 380.10 800.82 385.72 810.13 C 387.31 812.79 391.15 812.07 392.49 809.58 C 398.06 799.06 403.51 788.48 409.06 777.95 C 412.19 771.04 415.40 764.17 418.79 757.38 C 419.04 758.33 419.31 759.31 419.57 760.28 C 418.68 761.84 417.78 763.40 416.89 764.97 C 418.14 764.14 419.38 763.32 420.63 762.50 C 423.74 766.08 425.84 770.37 427.44 774.82 C 428.05 773.81 428.67 772.79 429.29 771.81 C 429.98 781.52 431.37 791.18 431.71 800.92 C 431.51 805.10 426.91 805.84 423.77 806.87 C 423.98 808.43 424.30 809.99 424.56 811.56 C 437.24 810.85 449.98 811.29 462.69 811.35 C 462.82 809.71 462.89 808.06 462.97 806.44 C 460.11 806.16 457.51 805.12 455.27 803.36 C 452.86 797.83 453.51 791.69 452.57 785.87 C 450.46 764.85 447.71 743.91 445.42 722.92 C 447.53 720.97 450.11 719.79 452.91 719.21 C 452.75 717.69 452.58 716.19 452.39 714.70 C 443.21 714.99 434.03 714.69 424.85 714.63 C 423.21 715.69 423.09 717.81 422.28 719.43 C 414.20 735.43 406.72 751.73 398.81 767.82 C 396.43 771.95 394.28 776.21 392.64 780.70 C 390.62 774.05 386.72 768.29 383.85 762.02 C 376.30 745.98 368.37 730.13 360.30 714.34 C 355.29 715.90 350.11 714.41 345.01 714.66 C 341.05 714.35 337.00 715.85 333.18 714.36 M 548.59 714.36 C 548.48 716.30 548.37 718.26 548.18 720.21 C 550.40 720.61 553.03 720.24 554.78 721.99 C 557.05 723.97 557.05 727.20 557.15 729.98 C 557.24 749.65 556.70 769.29 556.92 788.95 C 557.22 793.37 557.24 797.86 556.31 802.21 C 554.40 805.28 550.53 806.00 547.31 806.95 C 547.56 808.51 547.33 810.42 548.90 811.40 C 551.93 811.19 554.93 810.48 557.99 810.74 C 568.47 811.64 578.99 811.04 589.49 811.34 C 589.45 809.76 589.39 808.19 589.30 806.62 C 585.87 805.37 580.45 805.34 579.52 800.96 C 578.92 794.67 579.49 788.32 578.88 782.02 C 578.55 780.57 578.82 778.31 580.90 778.79 C 590.10 778.48 599.33 779.14 608.50 778.16 C 616.38 776.74 624.51 774.10 630.37 768.39 C 638.20 761.04 641.00 749.37 638.98 739.02 C 637.02 729.32 629.62 721.08 620.33 717.80 C 606.90 712.28 592.12 714.30 578.01 714.27 C 568.20 714.21 558.39 715.01 548.59 714.36 M 844.50 714.44 C 844.32 716.09 844.19 717.75 844.11 719.43 C 848.74 721.29 853.76 723.80 855.25 728.98 C 856.42 734.90 856.14 740.97 855.84 746.97 C 856.39 754.62 856.12 762.29 856.27 769.96 C 856.07 780.34 856.82 790.86 854.78 801.10 C 853.61 805.01 848.99 805.49 845.84 806.98 C 845.13 808.60 846.04 810.07 846.77 811.50 C 847.82 811.29 848.86 811.06 849.93 810.84 C 859.72 811.81 869.60 810.65 879.38 811.66 C 879.39 809.73 879.40 807.82 879.38 805.91 C 876.79 805.24 873.84 805.13 871.80 803.22 C 870.75 801.62 869.76 799.86 869.54 797.94 C 868.87 780.80 869.75 763.61 868.32 746.51 C 878.57 756.65 887.68 767.87 897.93 778.02 C 909.03 789.32 919.20 801.58 931.18 811.99 C 933.41 813.30 936.21 812.69 938.63 812.20 C 939.05 793.15 938.82 774.10 938.89 755.05 C 939.04 745.00 938.34 734.92 939.40 724.92 C 941.41 721.79 944.98 720.43 948.33 719.25 C 947.88 717.71 947.46 716.15 947.07 714.61 C 942.37 714.91 937.67 714.39 932.98 714.83 C 927.11 715.53 921.23 714.47 915.35 714.71 C 914.95 716.48 914.72 718.28 914.63 720.11 C 918.39 720.69 922.49 721.85 924.29 725.57 C 925.92 742.67 925.13 759.89 925.66 777.05 C 912.16 762.64 898.69 748.20 885.43 733.57 C 879.73 727.09 872.92 721.63 868.06 714.43 C 861.34 714.89 854.57 714.47 847.86 715.14 C 846.74 714.87 845.62 714.64 844.50 714.44 M 1092.52 714.63 C 1092.45 716.44 1092.37 718.26 1092.27 720.09 C 1094.34 720.45 1096.58 720.58 1098.48 721.65 C 1101.47 722.74 1100.89 726.46 1101.46 729.00 C 1098.72 735.94 1093.81 741.77 1090.42 748.39 C 1088.95 751.68 1086.51 754.66 1083.11 756.02 C 1080.48 756.25 1077.93 755.32 1075.32 755.27 C 1073.42 752.52 1071.96 749.51 1070.51 746.52 C 1066.84 738.61 1061.95 731.28 1058.98 723.06 C 1061.50 720.93 1065.87 720.49 1066.61 716.77 C 1066.08 716.00 1065.51 715.29 1064.89 714.64 C 1051.70 714.91 1038.49 714.52 1025.30 714.58 C 1024.93 716.39 1025.08 718.22 1025.54 720.01 C 1028.82 719.83 1031.97 721.44 1033.76 724.19 C 1039.55 732.34 1043.57 741.55 1048.51 750.20 C 1050.89 755.13 1054.71 759.59 1055.59 765.10 C 1055.13 776.74 1055.70 788.42 1054.71 800.03 C 1054.35 804.84 1048.81 805.62 1045.11 806.70 C 1045.42 808.33 1044.93 810.52 1046.75 811.41 C 1049.15 811.20 1051.55 810.70 1053.99 810.78 C 1065.21 811.44 1076.49 811.34 1087.71 810.69 C 1097.21 810.19 1106.69 810.92 1116.19 811.32 C 1116.00 808.17 1116.07 805.00 1116.61 801.89 C 1117.31 797.79 1116.92 793.49 1118.62 789.62 C 1116.81 789.05 1114.17 789.05 1113.66 791.35 C 1112.34 796.57 1108.04 800.05 1103.73 802.83 C 1100.61 804.08 1097.29 804.97 1093.91 804.45 C 1089.66 804.55 1085.45 804.02 1081.36 802.94 C 1079.94 802.11 1077.67 801.67 1077.61 799.66 C 1077.03 789.60 1078.12 779.41 1076.58 769.41 C 1079.71 769.39 1082.87 769.42 1085.92 770.28 C 1088.54 772.88 1090.23 776.26 1093.00 778.73 C 1093.82 777.92 1094.65 777.11 1095.49 776.32 C 1095.32 769.53 1095.65 762.68 1097.30 756.08 C 1099.46 752.03 1101.90 748.13 1104.13 744.12 C 1108.65 737.51 1111.99 730.11 1117.09 723.90 C 1119.26 721.04 1122.99 719.77 1124.55 716.40 C 1124.19 715.89 1123.48 714.89 1123.13 714.39 C 1112.93 714.72 1102.72 714.50 1092.52 714.63 M 237.18 850.21 C 234.18 853.17 231.49 857.55 232.94 861.91 C 235.13 866.75 240.08 869.71 245.16 870.73 C 248.70 872.36 253.23 871.74 256.05 874.74 C 255.15 876.72 254.17 878.72 252.72 880.39 C 251.23 880.33 249.76 880.29 248.29 880.40 C 243.67 878.99 239.24 877.02 235.52 873.89 C 234.24 876.45 233.05 879.06 231.49 881.47 C 234.15 884.37 237.82 885.88 241.52 887.03 C 245.27 887.97 249.22 889.07 253.08 887.99 C 258.30 886.89 263.15 883.17 264.60 877.89 C 264.98 874.28 264.55 869.84 261.19 867.70 C 256.80 864.29 251.28 863.14 246.01 861.86 C 244.08 861.57 242.75 860.03 241.22 858.99 C 242.19 857.03 243.54 855.08 245.92 854.84 C 251.12 854.78 256.43 855.92 260.92 858.64 C 261.75 856.60 262.67 854.60 263.68 852.66 C 260.52 848.47 254.98 847.29 250.06 846.80 C 245.61 846.84 240.91 847.63 237.18 850.21 M 355.70 861.42 C 353.88 867.13 354.71 873.75 358.19 878.69 C 362.48 885.10 370.55 888.64 378.15 888.10 C 383.56 887.10 389.36 885.45 393.27 881.38 C 393.89 876.37 393.19 871.29 393.82 866.28 C 388.40 866.08 382.90 866.31 377.63 864.75 C 376.55 866.69 377.80 869.88 376.70 872.20 C 379.76 871.66 386.30 871.14 385.43 876.00 C 383.47 879.03 379.38 879.89 376.00 880.27 C 371.78 879.82 367.73 877.38 365.55 873.72 C 364.40 871.25 364.22 868.49 363.75 865.86 C 364.85 863.34 365.82 860.71 367.50 858.51 C 369.78 855.70 373.56 854.92 376.98 854.67 C 381.36 854.68 385.08 857.24 388.99 858.86 C 391.19 858.91 392.30 856.14 394.00 855.03 C 391.28 852.07 388.10 849.39 384.36 847.85 C 373.31 843.96 359.50 850.17 355.70 861.42 M 427.80 848.14 C 427.61 861.17 427.72 874.20 427.61 887.23 C 437.21 887.18 446.82 887.40 456.42 887.48 C 456.60 884.55 456.76 881.62 456.65 878.69 C 450.13 879.86 443.54 878.79 436.99 879.21 C 437.90 868.61 437.62 857.92 437.62 847.29 C 434.33 847.42 431.04 847.59 427.80 848.14 M 487.44 847.48 C 488.31 854.28 488.43 861.16 487.86 868.00 C 487.28 874.52 488.98 881.05 487.71 887.53 C 490.23 887.17 492.75 886.74 495.30 886.51 C 495.53 886.92 495.99 887.73 496.22 888.14 C 496.58 880.06 497.22 871.91 496.39 863.85 C 498.98 864.74 499.72 867.59 501.08 869.69 C 503.91 874.76 508.95 878.06 511.97 883.00 C 513.10 884.49 513.64 886.92 515.89 887.06 C 517.92 887.02 521.28 888.98 522.22 886.24 C 522.98 873.31 521.93 860.34 522.79 847.42 C 519.54 847.32 516.36 848.16 513.13 848.23 C 514.31 855.70 513.94 863.38 513.35 870.90 C 511.40 868.89 509.47 866.76 508.53 864.09 C 506.77 859.87 503.07 857.00 500.34 853.47 C 498.87 851.69 497.77 849.59 496.10 848.00 C 493.34 846.87 490.32 847.56 487.44 847.48 M 555.62 847.12 C 556.93 850.67 555.91 854.40 555.82 858.06 C 555.61 867.59 555.84 877.16 555.28 886.68 C 565.63 887.81 576.05 886.99 586.44 887.41 C 587.70 885.01 587.36 881.89 586.86 879.31 C 585.23 878.09 582.97 879.04 581.08 878.85 C 575.92 879.29 570.60 877.80 565.58 879.47 C 565.87 876.71 563.57 873.10 565.66 870.93 C 571.89 871.58 578.21 870.55 584.41 871.74 C 584.43 868.72 584.51 865.63 583.48 862.75 C 577.08 864.85 570.37 861.13 564.14 863.51 C 565.38 860.90 565.63 858.08 565.47 855.23 C 572.27 855.50 579.08 855.07 585.86 855.78 C 585.65 852.99 585.75 850.21 586.41 847.50 C 576.18 847.10 565.87 847.61 555.62 847.12 M 635.32 847.31 C 635.77 848.51 636.67 849.63 636.54 851.00 C 635.95 858.68 636.44 866.37 636.31 874.07 C 636.22 878.46 637.23 882.89 636.28 887.25 C 638.26 887.18 640.25 887.15 642.24 887.16 L 642.90 886.77 C 643.58 886.80 644.95 886.85 645.63 886.88 C 644.98 881.48 646.05 876.10 645.58 870.72 C 650.75 871.45 656.04 872.05 661.23 871.10 C 660.88 876.19 662.17 881.42 660.68 886.38 C 663.55 887.75 666.73 887.21 669.74 886.69 C 669.57 882.80 669.76 878.91 670.14 875.05 C 670.24 867.36 670.08 859.67 670.18 851.99 C 670.00 850.49 670.73 848.64 669.36 847.57 C 666.63 847.13 663.87 847.47 661.14 847.57 C 661.32 852.86 660.86 858.18 661.64 863.45 C 660.09 863.31 658.54 863.15 657.01 862.98 C 653.40 862.64 649.79 862.98 646.21 863.26 C 646.21 860.50 646.18 857.76 646.16 855.02 C 645.94 852.44 645.78 849.86 645.69 847.28 C 642.25 847.74 638.76 847.89 635.32 847.31 M 702.84 847.18 C 703.68 851.44 702.64 855.77 703.06 860.06 C 703.42 864.03 703.17 868.01 702.98 871.99 C 702.71 876.91 704.13 882.00 702.24 886.74 C 712.71 887.83 723.29 887.13 733.80 887.48 C 733.77 884.50 733.82 881.52 733.77 878.56 C 726.37 877.87 718.50 880.43 711.47 877.34 C 711.69 875.48 712.00 873.64 712.33 871.82 C 715.91 871.47 719.48 870.49 723.11 870.96 C 725.81 871.28 728.53 871.56 731.27 871.45 C 731.47 868.49 731.51 865.53 731.29 862.59 C 724.73 863.31 718.18 862.73 711.61 862.76 C 712.02 860.35 712.24 857.93 711.78 855.53 C 718.96 854.77 726.15 855.53 733.35 855.34 C 733.26 852.75 733.24 850.16 733.21 847.59 C 731.79 847.39 730.36 847.17 728.95 847.21 C 720.25 847.68 711.54 847.20 702.84 847.18 M 766.33 847.10 C 766.85 853.44 766.20 859.82 766.83 866.18 C 766.29 873.23 767.08 880.33 766.18 887.36 C 769.56 887.05 772.95 887.24 776.32 887.66 C 775.96 885.48 775.47 883.32 775.41 881.12 C 775.54 879.17 777.69 876.74 775.10 875.34 C 777.57 875.32 780.08 875.44 782.48 874.66 C 786.48 878.02 787.46 883.57 790.99 887.29 C 793.38 887.48 795.77 886.97 798.16 886.75 C 799.18 887.09 800.22 887.43 801.27 887.76 C 798.59 882.59 795.05 877.96 792.10 872.97 C 792.67 872.84 793.80 872.57 794.36 872.44 C 796.21 870.40 799.10 868.89 799.52 865.92 C 800.00 863.14 801.54 860.17 800.21 857.41 C 798.49 852.59 794.38 848.44 789.15 847.77 C 781.58 846.79 773.93 847.54 766.33 847.10 M 831.23 847.42 C 831.85 853.24 831.55 859.12 831.82 864.96 C 831.49 872.23 832.15 879.54 831.17 886.77 C 841.64 887.74 852.21 887.22 862.73 887.42 C 862.69 886.59 862.60 884.93 862.56 884.10 L 863.18 884.42 C 863.23 882.86 863.30 881.30 863.38 879.76 C 857.48 877.17 850.92 879.20 844.71 878.77 C 843.37 878.94 842.05 879.12 840.73 879.32 C 841.18 876.71 841.22 874.07 841.30 871.45 C 847.15 869.63 853.28 870.63 859.10 871.98 C 861.10 869.16 859.61 865.66 859.36 862.56 C 853.18 862.96 846.98 862.80 840.80 862.64 C 840.98 860.24 841.10 857.83 841.23 855.43 C 847.61 855.09 854.01 855.26 860.41 855.42 L 861.40 857.17 C 861.90 854.01 862.45 850.85 862.63 847.66 C 852.17 847.20 841.69 847.72 831.23 847.42 M 296.57 847.70 C 296.91 860.87 296.33 874.06 296.59 887.24 C 306.14 887.66 315.69 887.38 325.25 887.60 C 325.09 884.59 325.12 881.59 325.19 878.60 C 319.27 879.60 313.26 879.00 307.32 878.63 C 306.94 878.46 306.19 878.12 305.82 877.95 C 306.59 868.01 305.91 857.78 306.73 847.74 C 303.34 847.80 299.96 847.67 296.57 847.70 Z" />
<path fill="#ffffff" opacity="1.00" d=" M 212.59 726.85 C 221.65 724.78 231.44 728.63 237.55 735.44 C 241.32 739.42 243.59 744.57 244.74 749.89 C 247.27 760.87 246.88 772.72 242.39 783.15 C 238.55 791.61 230.60 798.96 221.00 799.57 C 214.81 799.69 207.97 798.98 203.13 794.71 C 197.36 789.56 192.96 782.75 191.35 775.13 C 189.89 767.14 189.10 758.87 190.98 750.87 C 193.05 739.81 201.07 729.04 212.59 726.85 Z" />
<path fill="#ffffff" opacity="1.00" d=" M 578.56 726.11 C 586.76 726.52 595.19 725.38 603.19 727.77 C 608.17 729.25 612.33 732.94 614.71 737.52 C 615.83 740.19 615.77 743.14 616.13 745.97 C 615.43 749.37 615.89 753.32 613.53 756.17 C 610.49 760.49 605.74 763.59 600.45 764.19 C 593.46 765.35 586.38 764.55 579.35 764.61 L 578.82 764.15 C 579.42 751.48 579.07 738.77 578.56 726.11 Z" />
</g>
<g id="#000000ff">
<path fill="#000000" opacity="1.00" d=" M 527.03 21.32 C 568.30 17.65 610.03 19.67 650.87 26.56 C 673.27 31.18 695.72 36.06 717.25 43.88 C 733.07 49.33 748.91 54.92 763.87 62.48 C 778.78 69.02 792.79 77.33 806.83 85.50 C 817.27 92.60 827.96 99.36 837.94 107.12 C 845.95 113.75 854.66 119.55 862.02 126.95 C 870.97 134.28 878.80 142.80 886.93 151.01 C 909.04 174.88 928.37 201.38 943.86 230.03 C 951.00 241.77 955.96 254.62 961.58 267.12 C 979.36 311.10 989.53 358.39 989.26 405.93 C 989.59 434.36 986.35 462.78 980.27 490.53 C 973.81 514.78 966.64 538.98 955.70 561.64 C 952.46 568.85 949.14 576.04 945.12 582.86 C 939.04 593.72 933.16 604.71 925.75 614.75 C 918.57 626.87 909.24 637.49 900.87 648.77 C 898.69 651.59 896.15 654.11 893.87 656.85 C 888.93 662.49 884.46 668.67 878.59 673.40 C 871.81 674.07 864.87 673.41 858.03 673.62 C 815.02 673.65 772.02 673.60 729.02 673.63 C 700.14 673.80 671.25 673.22 642.38 673.84 C 642.63 654.10 642.86 634.36 642.72 614.62 C 651.83 612.03 660.86 609.09 669.72 605.74 C 683.67 599.64 697.94 594.02 710.77 585.70 C 740.47 568.73 766.58 545.39 786.39 517.49 C 802.07 495.68 813.12 470.75 820.10 444.86 C 826.86 417.51 827.53 388.72 822.74 360.96 C 817.86 337.24 808.53 314.33 794.77 294.35 C 789.15 284.88 781.63 276.75 774.23 268.66 C 766.35 260.15 757.08 253.12 747.87 246.14 C 740.90 240.91 733.23 236.75 725.72 232.37 C 712.66 224.80 698.39 219.75 684.17 214.84 C 669.16 210.26 653.63 207.53 638.06 205.74 C 620.45 203.83 602.72 204.37 585.04 204.18 C 501.34 204.18 417.63 204.23 333.93 204.18 C 327.26 196.21 319.09 189.69 312.24 181.89 C 299.72 169.75 287.40 157.41 275.01 145.15 C 271.64 141.83 267.62 139.10 265.00 135.08 C 268.80 132.57 271.86 129.15 275.45 126.38 C 282.14 119.95 289.77 114.62 296.98 108.81 C 305.55 101.87 315.01 96.16 323.93 89.70 C 330.78 84.81 338.35 81.09 345.47 76.63 C 356.87 70.50 368.29 64.33 380.25 59.38 C 380.28 58.87 380.35 57.87 380.38 57.36 C 380.96 57.71 381.54 58.06 382.13 58.42 C 388.74 54.84 396.00 52.77 402.82 49.64 C 415.30 45.26 427.57 40.19 440.46 37.10 C 455.05 32.88 469.94 29.79 484.83 26.88 C 498.77 24.23 512.85 22.16 527.03 21.32 Z" />
<path fill="#000000" opacity="1.00" d=" M 163.08 218.44 C 168.98 217.37 175.02 217.55 181.00 217.52 C 194.02 217.62 207.06 217.33 220.08 217.54 C 228.02 217.73 235.61 220.29 242.92 223.17 C 250.89 226.66 256.32 233.72 262.02 239.97 C 274.27 254.47 286.63 268.87 298.94 283.32 C 302.59 288.18 306.83 292.54 310.77 297.16 C 317.19 305.62 324.61 313.25 331.21 321.57 C 365.71 362.14 400.67 402.29 434.99 443.00 C 445.82 455.86 456.84 468.56 467.66 481.42 C 474.17 488.23 479.57 496.00 486.25 502.66 C 490.29 506.58 492.78 511.88 497.24 515.41 C 496.52 496.64 497.15 477.84 496.86 459.06 C 496.93 385.02 497.02 311.01 496.95 236.99 C 496.78 230.77 497.08 224.55 496.75 218.33 C 521.83 218.09 546.93 218.40 572.01 217.93 C 584.65 218.69 597.44 216.60 610.00 218.80 C 614.91 220.81 619.89 223.76 622.29 228.72 C 625.80 234.92 624.56 242.23 624.74 249.02 C 624.79 352.68 625.04 456.33 624.79 559.99 C 624.98 589.35 624.36 618.70 624.73 648.06 C 624.67 657.70 625.34 667.68 621.68 676.84 C 617.44 689.40 606.81 699.76 593.96 703.24 C 584.78 705.32 575.31 704.57 565.97 704.80 C 551.99 704.76 538.01 704.65 524.04 704.63 C 517.83 704.65 511.39 704.91 505.53 702.52 C 499.51 700.43 495.08 695.60 490.73 691.17 C 480.04 679.48 470.21 667.05 459.70 655.21 C 428.64 617.72 396.83 580.84 365.49 543.57 C 361.80 539.88 359.07 535.40 355.65 531.48 C 347.84 522.94 340.90 513.66 333.21 505.02 C 314.20 481.61 293.95 459.24 275.20 435.61 C 271.59 431.29 267.42 427.41 264.29 422.71 C 262.96 420.68 261.24 418.94 259.25 417.57 C 260.73 433.34 260.01 449.18 260.21 464.99 C 260.21 522.35 260.28 579.70 260.34 637.06 C 260.31 649.34 260.53 661.62 260.19 673.89 C 229.81 673.41 199.42 673.74 169.03 673.61 C 161.63 673.65 154.22 673.58 146.82 673.85 C 147.37 651.26 147.03 628.66 147.13 606.06 C 147.07 488.04 147.32 370.01 147.07 251.99 C 147.14 244.68 145.85 236.88 149.04 230.02 C 151.74 224.32 157.28 220.53 163.08 218.44 Z" />
<path fill="#000000" opacity="1.00" d=" M 51.83 714.91 C 71.21 708.60 94.03 713.91 108.01 728.93 C 104.37 733.81 99.84 738.04 95.12 741.87 C 91.36 735.80 84.65 732.44 78.08 730.31 C 66.93 726.97 53.90 730.35 46.32 739.33 C 41.25 745.70 38.95 753.99 39.14 762.06 C 38.85 772.83 43.13 784.61 52.69 790.40 C 57.69 794.06 63.71 796.37 69.96 796.25 C 79.70 796.35 88.52 790.73 94.84 783.71 C 96.86 783.44 98.12 785.27 99.53 786.37 C 102.39 789.20 105.57 791.79 107.94 795.08 C 107.83 795.45 107.62 796.19 107.51 796.56 C 103.35 801.28 98.27 805.15 92.44 807.57 C 81.00 813.49 67.48 813.92 55.04 811.58 C 41.82 807.81 28.68 799.96 22.50 787.19 C 13.14 770.93 14.43 749.35 25.10 734.02 C 31.22 724.61 41.35 718.40 51.83 714.91 Z" />
<path fill="#000000" opacity="1.00" d=" M 207.47 713.59 C 221.90 710.49 237.40 714.04 249.44 722.45 C 259.18 729.01 265.71 739.70 267.97 751.16 C 270.69 765.61 268.04 781.36 259.24 793.34 C 251.76 802.82 240.98 809.67 229.05 811.87 C 215.06 814.28 199.68 812.46 187.94 804.00 C 176.46 796.49 168.26 783.74 167.14 769.98 C 165.61 758.78 167.14 746.79 173.27 737.12 C 180.34 724.61 193.42 716.05 207.47 713.59 M 212.59 726.85 C 201.07 729.04 193.05 739.81 190.98 750.87 C 189.10 758.87 189.89 767.14 191.35 775.13 C 192.96 782.75 197.36 789.56 203.13 794.71 C 207.97 798.98 214.81 799.69 221.00 799.57 C 230.60 798.96 238.55 791.61 242.39 783.15 C 246.88 772.72 247.27 760.87 244.74 749.89 C 243.59 744.57 241.32 739.42 237.55 735.44 C 231.44 728.63 221.65 724.78 212.59 726.85 Z" />
<path fill="#000000" opacity="1.00" d=" M 333.18 714.36 C 337.00 715.85 341.05 714.35 345.01 714.66 C 350.11 714.41 355.29 715.90 360.30 714.34 C 368.37 730.13 376.30 745.98 383.85 762.02 C 386.72 768.29 390.62 774.05 392.64 780.70 C 394.28 776.21 396.43 771.95 398.81 767.82 C 406.72 751.73 414.20 735.43 422.28 719.43 C 423.09 717.81 423.21 715.69 424.85 714.63 C 434.03 714.69 443.21 714.99 452.39 714.70 C 452.58 716.19 452.75 717.69 452.91 719.21 C 450.11 719.79 447.53 720.97 445.42 722.92 C 447.71 743.91 450.46 764.85 452.57 785.87 C 453.51 791.69 452.86 797.83 455.27 803.36 C 457.51 805.12 460.11 806.16 462.97 806.44 C 462.89 808.06 462.82 809.71 462.69 811.35 C 449.98 811.29 437.24 810.85 424.56 811.56 C 424.30 809.99 423.98 808.43 423.77 806.87 C 426.91 805.84 431.51 805.10 431.71 800.92 C 431.37 791.18 429.98 781.52 429.29 771.81 C 429.19 770.65 429.09 769.51 428.97 768.38 C 428.71 762.04 428.40 755.68 426.86 749.50 C 426.53 746.74 426.67 743.95 426.52 741.19 C 424.54 746.87 421.20 751.89 418.79 757.38 C 415.40 764.17 412.19 771.04 409.06 777.95 C 403.51 788.48 398.06 799.06 392.49 809.58 C 391.15 812.07 387.31 812.79 385.72 810.13 C 380.10 800.82 375.34 791.03 370.62 781.24 C 366.56 773.07 361.59 765.37 358.07 756.94 C 356.05 751.92 353.77 746.96 350.63 742.55 C 351.00 748.99 350.63 755.46 349.82 761.86 C 348.99 770.92 348.43 780.00 347.50 789.05 C 347.28 793.96 346.09 799.52 348.97 803.91 C 351.10 805.69 354.02 805.85 356.58 806.67 C 356.57 808.22 356.56 809.78 356.53 811.34 C 345.55 811.15 334.57 811.33 323.59 811.38 C 323.24 810.03 322.90 808.70 322.58 807.37 C 327.17 806.04 331.42 802.97 332.46 798.05 C 333.87 782.31 336.21 766.67 337.62 750.93 C 338.68 743.97 338.87 736.90 340.20 729.98 C 340.46 727.33 340.93 724.20 339.04 722.02 C 337.36 720.28 334.85 719.99 332.66 719.29 C 332.64 717.62 332.76 715.96 333.18 714.36 Z" />
<path fill="#000000" opacity="1.00" d=" M 548.59 714.36 C 558.39 715.01 568.20 714.21 578.01 714.27 C 592.12 714.30 606.90 712.28 620.33 717.80 C 629.62 721.08 637.02 729.32 638.98 739.02 C 641.00 749.37 638.20 761.04 630.37 768.39 C 624.51 774.10 616.38 776.74 608.50 778.16 C 599.33 779.14 590.10 778.48 580.90 778.79 C 578.82 778.31 578.55 780.57 578.88 782.02 C 579.49 788.32 578.92 794.67 579.52 800.96 C 580.45 805.34 585.87 805.37 589.30 806.62 C 589.39 808.19 589.45 809.76 589.49 811.34 C 578.99 811.04 568.47 811.64 557.99 810.74 C 554.93 810.48 551.93 811.19 548.90 811.40 C 547.33 810.42 547.56 808.51 547.31 806.95 C 550.53 806.00 554.40 805.28 556.31 802.21 C 557.24 797.86 557.22 793.37 556.92 788.95 C 556.70 769.29 557.24 749.65 557.15 729.98 C 557.05 727.20 557.05 723.97 554.78 721.99 C 553.03 720.24 550.40 720.61 548.18 720.21 C 548.37 718.26 548.48 716.30 548.59 714.36 M 578.56 726.11 C 579.07 738.77 579.42 751.48 578.82 764.15 L 579.35 764.61 C 586.38 764.55 593.46 765.35 600.45 764.19 C 605.74 763.59 610.49 760.49 613.53 756.17 C 615.89 753.32 615.43 749.37 616.13 745.97 C 615.77 743.14 615.83 740.19 614.71 737.52 C 612.33 732.94 608.17 729.25 603.19 727.77 C 595.19 725.38 586.76 726.52 578.56 726.11 Z" />
<path fill="#000000" opacity="1.00" d=" M 844.50 714.44 C 845.62 714.64 846.74 714.87 847.86 715.14 C 854.57 714.47 861.34 714.89 868.06 714.43 C 872.92 721.63 879.73 727.09 885.43 733.57 C 898.69 748.20 912.16 762.64 925.66 777.05 C 925.13 759.89 925.92 742.67 924.29 725.57 C 922.49 721.85 918.39 720.69 914.63 720.11 C 914.72 718.28 914.95 716.48 915.35 714.71 C 921.23 714.47 927.11 715.53 932.98 714.83 C 937.67 714.39 942.37 714.91 947.07 714.61 C 947.46 716.15 947.88 717.71 948.33 719.25 C 944.98 720.43 941.41 721.79 939.40 724.92 C 938.34 734.92 939.04 745.00 938.89 755.05 C 938.82 774.10 939.05 793.15 938.63 812.20 C 936.21 812.69 933.41 813.30 931.18 811.99 C 919.20 801.58 909.03 789.32 897.93 778.02 C 887.68 767.87 878.57 756.65 868.32 746.51 C 869.75 763.61 868.87 780.80 869.54 797.94 C 869.76 799.86 870.75 801.62 871.80 803.22 C 873.84 805.13 876.79 805.24 879.38 805.91 C 879.40 807.82 879.39 809.73 879.38 811.66 C 869.60 810.65 859.72 811.81 849.93 810.84 C 848.86 811.06 847.82 811.29 846.77 811.50 C 846.04 810.07 845.13 808.60 845.84 806.98 C 848.99 805.49 853.61 805.01 854.78 801.10 C 856.82 790.86 856.07 780.34 856.27 769.96 C 856.12 762.29 856.39 754.62 855.84 746.97 C 856.14 740.97 856.42 734.90 855.25 728.98 C 853.76 723.80 848.74 721.29 844.11 719.43 C 844.19 717.75 844.32 716.09 844.50 714.44 Z" />
</g>
<g id="#272726ff">
<path fill="#272726" opacity="1.00" d=" M 378.49 254.23 C 398.15 253.11 417.85 254.88 437.50 253.69 C 437.34 262.73 437.52 271.78 437.46 280.83 C 426.04 278.80 414.31 279.80 402.79 280.18 C 401.59 280.03 400.86 279.04 400.08 278.26 C 392.77 270.35 385.79 262.14 378.49 254.23 Z" />
</g>
<g id="#494947ff">
<path fill="#494947" opacity="1.00" d=" M 415.57 295.93 C 422.71 295.70 429.86 295.49 437.00 295.77 L 436.07 296.81 C 430.18 298.44 424.13 299.51 418.02 299.82 C 417.17 298.54 416.37 297.23 415.57 295.93 Z" />
</g>
<g id="#201f1fff">
<path fill="#201f1f" opacity="1.00" d=" M 437.00 295.77 L 437.54 295.17 C 437.57 303.75 437.20 312.33 437.02 320.91 C 435.78 319.72 434.61 318.47 433.44 317.22 C 436.78 310.91 435.80 303.66 436.07 296.81 L 437.00 295.77 Z" />
</g>
<g id="#313130ff">
<path fill="#313130" opacity="1.00" d=" M 418.02 299.82 C 424.13 299.51 430.18 298.44 436.07 296.81 C 435.80 303.66 436.78 310.91 433.44 317.22 C 428.61 311.15 423.61 305.20 418.02 299.82 Z" />
</g>
<g id="#010000ff">
<path fill="#010000" opacity="1.00" d=" M 737.34 713.86 C 740.93 713.36 744.58 712.83 748.19 713.57 C 749.50 719.23 752.82 724.09 754.77 729.51 C 760.25 742.19 765.88 754.80 771.34 767.49 C 776.44 778.28 780.02 789.74 785.61 800.31 C 787.64 803.61 791.03 805.78 794.76 806.73 C 794.74 808.24 794.69 809.76 794.63 811.29 C 781.61 811.23 768.60 811.10 755.59 811.36 C 755.38 809.91 755.21 808.45 755.10 807.01 C 757.54 805.92 761.73 805.40 761.84 802.05 C 760.75 797.22 758.17 792.90 756.77 788.16 C 756.56 786.40 754.56 786.07 753.13 786.04 C 742.12 786.25 731.09 786.28 720.10 786.16 C 717.83 790.25 716.53 795.24 715.24 799.87 C 713.45 804.56 720.07 805.67 723.36 805.98 C 723.69 807.78 723.76 809.62 723.61 811.46 C 712.90 811.21 702.18 811.27 691.47 811.41 C 691.30 809.60 691.20 807.77 691.23 805.96 C 693.05 805.78 695.03 805.62 696.39 804.20 C 700.88 800.26 703.20 794.57 705.24 789.11 C 709.27 780.32 712.76 771.30 716.21 762.27 C 723.72 746.33 729.56 729.68 737.34 713.86 M 736.72 743.06 C 733.91 752.57 729.31 761.44 726.53 770.97 C 726.89 771.47 727.26 771.99 727.64 772.53 C 726.20 772.50 725.18 773.12 724.57 774.38 C 733.53 774.44 742.51 774.09 751.47 774.44 C 749.23 771.47 748.12 767.90 746.80 764.48 C 744.12 757.27 740.81 750.30 738.14 743.11 C 737.78 743.10 737.08 743.07 736.72 743.06 Z" />
<path fill="#010000" opacity="1.00" d=" M 1092.52 714.63 C 1102.72 714.50 1112.93 714.72 1123.13 714.39 C 1123.48 714.89 1124.19 715.89 1124.55 716.40 C 1122.99 719.77 1119.26 721.04 1117.09 723.90 C 1111.99 730.11 1108.65 737.51 1104.13 744.12 C 1101.90 748.13 1099.46 752.03 1097.30 756.08 C 1095.65 762.68 1095.32 769.53 1095.49 776.32 C 1094.65 777.11 1093.82 777.92 1093.00 778.73 C 1090.23 776.26 1088.54 772.88 1085.92 770.28 C 1082.87 769.42 1079.71 769.39 1076.58 769.41 C 1078.12 779.41 1077.03 789.60 1077.61 799.66 C 1077.67 801.67 1079.94 802.11 1081.36 802.94 C 1081.02 803.99 1080.70 805.06 1080.39 806.13 C 1081.83 806.18 1083.26 806.31 1084.71 806.40 C 1086.29 807.73 1088.05 808.77 1089.85 809.82 C 1089.12 810.10 1088.41 810.39 1087.71 810.69 C 1076.49 811.34 1065.21 811.44 1053.99 810.78 C 1051.55 810.70 1049.15 811.20 1046.75 811.41 C 1044.93 810.52 1045.42 808.33 1045.11 806.70 C 1048.81 805.62 1054.35 804.84 1054.71 800.03 C 1055.70 788.42 1055.13 776.74 1055.59 765.10 C 1054.71 759.59 1050.89 755.13 1048.51 750.20 C 1043.57 741.55 1039.55 732.34 1033.76 724.19 C 1031.97 721.44 1028.82 719.83 1025.54 720.01 C 1025.08 718.22 1024.93 716.39 1025.30 714.58 C 1038.49 714.52 1051.70 714.91 1064.89 714.64 C 1065.51 715.29 1066.08 716.00 1066.61 716.77 C 1065.87 720.49 1061.50 720.93 1058.98 723.06 C 1061.95 731.28 1066.84 738.61 1070.51 746.52 C 1071.96 749.51 1073.42 752.52 1075.32 755.27 C 1077.93 755.32 1080.48 756.25 1083.11 756.02 C 1086.51 754.66 1088.95 751.68 1090.42 748.39 C 1093.81 741.77 1098.72 735.94 1101.46 729.00 C 1100.89 726.46 1101.47 722.74 1098.48 721.65 C 1096.58 720.58 1094.34 720.45 1092.27 720.09 C 1092.37 718.26 1092.45 716.44 1092.52 714.63 Z" />
</g>
<g id="#f2efefff">
<path fill="#f2efef" opacity="1.00" d=" M 418.79 757.38 C 421.20 751.89 424.54 746.87 426.52 741.19 C 426.67 743.95 426.53 746.74 426.86 749.50 C 427.09 751.55 427.32 753.60 427.56 755.67 C 427.08 755.92 426.13 756.42 425.65 756.68 C 427.56 760.31 428.40 764.34 428.97 768.38 C 429.09 769.51 429.19 770.65 429.29 771.81 C 428.67 772.79 428.05 773.81 427.44 774.82 C 425.84 770.37 423.74 766.08 420.63 762.50 C 419.38 763.32 418.14 764.14 416.89 764.97 C 417.78 763.40 418.68 761.84 419.57 760.28 C 419.31 759.31 419.04 758.33 418.79 757.38 Z" />
</g>
<g id="#fefefdff">
<path fill="#fefefd" opacity="1.00" d=" M 736.72 743.06 C 737.08 743.07 737.78 743.10 738.14 743.11 C 740.81 750.30 744.12 757.27 746.80 764.48 C 748.12 767.90 749.23 771.47 751.47 774.44 C 742.51 774.09 733.53 774.44 724.57 774.38 C 725.18 773.12 726.20 772.50 727.64 772.53 C 727.26 771.99 726.89 771.47 726.53 770.97 C 729.31 761.44 733.91 752.57 736.72 743.06 Z" />
</g>
<g id="#7d7978ff">
<path fill="#7d7978" opacity="1.00" d=" M 426.86 749.50 C 428.40 755.68 428.71 762.04 428.97 768.38 C 428.40 764.34 427.56 760.31 425.65 756.68 C 426.13 756.42 427.08 755.92 427.56 755.67 C 427.32 753.60 427.09 751.55 426.86 749.50 Z" />
</g>
<g id="#171512ff">
<path fill="#171512" opacity="1.00" d=" M 1113.66 791.35 C 1114.17 789.05 1116.81 789.05 1118.62 789.62 C 1116.92 793.49 1117.31 797.79 1116.61 801.89 C 1116.07 805.00 1116.00 808.17 1116.19 811.32 C 1106.69 810.92 1097.21 810.19 1087.71 810.69 C 1088.41 810.39 1089.12 810.10 1089.85 809.82 C 1088.05 808.77 1086.29 807.73 1084.71 806.40 C 1083.26 806.31 1081.83 806.18 1080.39 806.13 C 1080.70 805.06 1081.02 803.99 1081.36 802.94 C 1085.45 804.02 1089.66 804.55 1093.91 804.45 C 1092.51 805.53 1091.15 806.65 1089.78 807.75 C 1093.96 808.19 1099.21 810.30 1102.66 806.86 C 1103.33 806.27 1104.00 805.69 1104.67 805.11 C 1104.44 804.54 1103.96 803.40 1103.73 802.83 C 1108.04 800.05 1112.34 796.57 1113.66 791.35 Z" />
</g>
<g id="#353432ff">
<path fill="#353432" opacity="1.00" d=" M 1093.91 804.45 C 1097.29 804.97 1100.61 804.08 1103.73 802.83 C 1103.96 803.40 1104.44 804.54 1104.67 805.11 C 1104.00 805.69 1103.33 806.27 1102.66 806.86 C 1099.21 810.30 1093.96 808.19 1089.78 807.75 C 1091.15 806.65 1092.51 805.53 1093.91 804.45 Z" />
</g>
<g id="#030202ff">
<path fill="#030202" opacity="1.00" d=" M 237.18 850.21 C 240.91 847.63 245.61 846.84 250.06 846.80 C 254.98 847.29 260.52 848.47 263.68 852.66 C 262.67 854.60 261.75 856.60 260.92 858.64 C 256.43 855.92 251.12 854.78 245.92 854.84 C 243.54 855.08 242.19 857.03 241.22 858.99 C 242.75 860.03 244.08 861.57 246.01 861.86 C 251.28 863.14 256.80 864.29 261.19 867.70 C 264.55 869.84 264.98 874.28 264.60 877.89 C 263.15 883.17 258.30 886.89 253.08 887.99 C 249.22 889.07 245.27 887.97 241.52 887.03 C 241.83 885.30 242.15 883.57 242.46 881.85 C 244.39 881.32 246.33 880.82 248.29 880.40 C 249.76 880.29 251.23 880.33 252.72 880.39 C 254.17 878.72 255.15 876.72 256.05 874.74 C 253.23 871.74 248.70 872.36 245.16 870.73 C 240.08 869.71 235.13 866.75 232.94 861.91 C 231.49 857.55 234.18 853.17 237.18 850.21 Z" />
</g>
<g id="#030302ff">
<path fill="#030302" opacity="1.00" d=" M 355.70 861.42 C 359.50 850.17 373.31 843.96 384.36 847.85 C 388.10 849.39 391.28 852.07 394.00 855.03 C 392.30 856.14 391.19 858.91 388.99 858.86 C 385.08 857.24 381.36 854.68 376.98 854.67 C 373.56 854.92 369.78 855.70 367.50 858.51 C 365.82 860.71 364.85 863.34 363.75 865.86 C 364.22 868.49 364.40 871.25 365.55 873.72 C 367.73 877.38 371.78 879.82 376.00 880.27 C 379.38 879.89 383.47 879.03 385.43 876.00 C 386.30 871.14 379.76 871.66 376.70 872.20 C 377.80 869.88 376.55 866.69 377.63 864.75 C 382.90 866.31 388.40 866.08 393.82 866.28 C 393.19 871.29 393.89 876.37 393.27 881.38 C 389.36 885.45 383.56 887.10 378.15 888.10 C 370.55 888.64 362.48 885.10 358.19 878.69 C 354.71 873.75 353.88 867.13 355.70 861.42 Z" />
</g>
<g id="#050303ff">
<path fill="#050303" opacity="1.00" d=" M 427.80 848.14 C 431.04 847.59 434.33 847.42 437.62 847.29 C 437.62 857.92 437.90 868.61 436.99 879.21 C 443.54 878.79 450.13 879.86 456.65 878.69 C 456.76 881.62 456.60 884.55 456.42 887.48 C 446.82 887.40 437.21 887.18 427.61 887.23 C 427.72 874.20 427.61 861.17 427.80 848.14 Z" />
</g>
<g id="#020101ff">
<path fill="#020101" opacity="1.00" d=" M 487.44 847.48 C 490.32 847.56 493.34 846.87 496.10 848.00 C 497.77 849.59 498.87 851.69 500.34 853.47 C 503.07 857.00 506.77 859.87 508.53 864.09 C 509.47 866.76 511.40 868.89 513.35 870.90 C 513.94 863.38 514.31 855.70 513.13 848.23 C 516.36 848.16 519.54 847.32 522.79 847.42 C 521.93 860.34 522.98 873.31 522.22 886.24 C 521.28 888.98 517.92 887.02 515.89 887.06 C 513.64 886.92 513.10 884.49 511.97 883.00 C 508.95 878.06 503.91 874.76 501.08 869.69 C 499.72 867.59 498.98 864.74 496.39 863.85 C 497.22 871.91 496.58 880.06 496.22 888.14 C 495.99 887.73 495.53 886.92 495.30 886.51 C 492.75 886.74 490.23 887.17 487.71 887.53 C 488.98 881.05 487.28 874.52 487.86 868.00 C 488.43 861.16 488.31 854.28 487.44 847.48 Z" />
</g>
<g id="#040303ff">
<path fill="#040303" opacity="1.00" d=" M 555.62 847.12 C 565.87 847.61 576.18 847.10 586.41 847.50 C 585.75 850.21 585.65 852.99 585.86 855.78 C 579.08 855.07 572.27 855.50 565.47 855.23 C 565.63 858.08 565.38 860.90 564.14 863.51 C 570.37 861.13 577.08 864.85 583.48 862.75 C 584.51 865.63 584.43 868.72 584.41 871.74 C 578.21 870.55 571.89 871.58 565.66 870.93 C 563.57 873.10 565.87 876.71 565.58 879.47 C 570.60 877.80 575.92 879.29 581.08 878.85 C 582.97 879.04 585.23 878.09 586.86 879.31 C 587.36 881.89 587.70 885.01 586.44 887.41 C 576.05 886.99 565.63 887.81 555.28 886.68 C 555.84 877.16 555.61 867.59 555.82 858.06 C 555.91 854.40 556.93 850.67 555.62 847.12 Z" />
</g>
<g id="#030201ff">
<path fill="#030201" opacity="1.00" d=" M 635.32 847.31 C 638.76 847.89 642.25 847.74 645.69 847.28 C 645.78 849.86 645.94 852.44 646.16 855.02 C 646.18 857.76 646.21 860.50 646.21 863.26 C 649.79 862.98 653.40 862.64 657.01 862.98 C 658.54 863.15 660.09 863.31 661.64 863.45 C 660.86 858.18 661.32 852.86 661.14 847.57 C 663.87 847.47 666.63 847.13 669.36 847.57 C 670.73 848.64 670.00 850.49 670.18 851.99 C 670.08 859.67 670.24 867.36 670.14 875.05 C 669.76 878.91 669.57 882.80 669.74 886.69 C 666.73 887.21 663.55 887.75 660.68 886.38 C 662.17 881.42 660.88 876.19 661.23 871.10 C 656.04 872.05 650.75 871.45 645.58 870.72 C 646.05 876.10 644.98 881.48 645.63 886.88 C 644.95 886.85 643.58 886.80 642.90 886.77 L 642.24 887.16 C 640.25 887.15 638.26 887.18 636.28 887.25 C 637.23 882.89 636.22 878.46 636.31 874.07 C 636.44 866.37 635.95 858.68 636.54 851.00 C 636.67 849.63 635.77 848.51 635.32 847.31 Z" />
</g>
<g id="#040302ff">
<path fill="#040302" opacity="1.00" d=" M 702.84 847.18 C 711.54 847.20 720.25 847.68 728.95 847.21 C 730.36 847.17 731.79 847.39 733.21 847.59 C 733.24 850.16 733.26 852.75 733.35 855.34 C 726.15 855.53 718.96 854.77 711.78 855.53 C 712.24 857.93 712.02 860.35 711.61 862.76 C 718.18 862.73 724.73 863.31 731.29 862.59 C 731.51 865.53 731.47 868.49 731.27 871.45 C 728.53 871.56 725.81 871.28 723.11 870.96 C 719.48 870.49 715.91 871.47 712.33 871.82 C 712.00 873.64 711.69 875.48 711.47 877.34 C 718.50 880.43 726.37 877.87 733.77 878.56 C 733.82 881.52 733.77 884.50 733.80 887.48 C 723.29 887.13 712.71 887.83 702.24 886.74 C 704.13 882.00 702.71 876.91 702.98 871.99 C 703.17 868.01 703.42 864.03 703.06 860.06 C 702.64 855.77 703.68 851.44 702.84 847.18 Z" />
</g>
<g id="#040202ff">
<path fill="#040202" opacity="1.00" d=" M 766.33 847.10 C 773.93 847.54 781.58 846.79 789.15 847.77 C 794.38 848.44 798.49 852.59 800.21 857.41 C 801.54 860.17 800.00 863.14 799.52 865.92 C 799.10 868.89 796.21 870.40 794.36 872.44 C 793.80 872.57 792.67 872.84 792.10 872.97 C 795.05 877.96 798.59 882.59 801.27 887.76 C 800.22 887.43 799.18 887.09 798.16 886.75 C 795.77 886.97 793.38 887.48 790.99 887.29 C 787.46 883.57 786.48 878.02 782.48 874.66 C 780.08 875.44 777.57 875.32 775.10 875.34 C 777.69 876.74 775.54 879.17 775.41 881.12 C 775.47 883.32 775.96 885.48 776.32 887.66 C 772.95 887.24 769.56 887.05 766.18 887.36 C 767.08 880.33 766.29 873.23 766.83 866.18 C 766.20 859.82 766.85 853.44 766.33 847.10 M 775.69 855.87 C 776.53 859.71 775.40 863.57 775.58 867.45 C 779.56 866.85 783.59 866.71 787.60 866.37 C 792.95 865.72 791.80 857.54 787.82 855.77 C 783.82 854.83 779.72 855.74 775.69 855.87 Z" />
</g>
<g id="#040301ff">
<path fill="#040301" opacity="1.00" d=" M 831.23 847.42 C 841.69 847.72 852.17 847.20 862.63 847.66 C 862.45 850.85 861.90 854.01 861.40 857.17 L 860.41 855.42 C 854.01 855.26 847.61 855.09 841.23 855.43 C 841.10 857.83 840.98 860.24 840.80 862.64 C 846.98 862.80 853.18 862.96 859.36 862.56 C 859.61 865.66 861.10 869.16 859.10 871.98 C 853.28 870.63 847.15 869.63 841.30 871.45 C 841.22 874.07 841.18 876.71 840.73 879.32 C 842.05 879.12 843.37 878.94 844.71 878.77 C 845.05 879.38 845.73 880.60 846.08 881.21 C 851.60 881.87 857.59 881.16 862.56 884.10 C 862.60 884.93 862.69 886.59 862.73 887.42 C 852.21 887.22 841.64 887.74 831.17 886.77 C 832.15 879.54 831.49 872.23 831.82 864.96 C 831.55 859.12 831.85 853.24 831.23 847.42 Z" />
</g>
<g id="#050403ff">
<path fill="#050403" opacity="1.00" d=" M 296.57 847.70 C 299.96 847.67 303.34 847.80 306.73 847.74 C 305.91 857.78 306.59 868.01 305.82 877.95 C 306.19 878.12 306.94 878.46 307.32 878.63 C 313.26 879.00 319.27 879.60 325.19 878.60 C 325.12 881.59 325.09 884.59 325.25 887.60 C 315.69 887.38 306.14 887.66 296.59 887.24 C 296.33 874.06 296.91 860.87 296.57 847.70 Z" />
</g>
<g id="#f8f7f4ff">
<path fill="#f8f7f4" opacity="1.00" d=" M 775.69 855.87 C 779.72 855.74 783.82 854.83 787.82 855.77 C 791.80 857.54 792.95 865.72 787.60 866.37 C 783.59 866.71 779.56 866.85 775.58 867.45 C 775.40 863.57 776.53 859.71 775.69 855.87 Z" />
</g>
<g id="#0f0d0aff">
<path fill="#0f0d0a" opacity="1.00" d=" M 231.49 881.47 C 233.05 879.06 234.24 876.45 235.52 873.89 C 239.24 877.02 243.67 878.99 248.29 880.40 C 246.33 880.82 244.39 881.32 242.46 881.85 C 242.15 883.57 241.83 885.30 241.52 887.03 C 237.82 885.88 234.15 884.37 231.49 881.47 Z" />
</g>
<g id="#261d1cff">
<path fill="#261d1c" opacity="1.00" d=" M 844.71 878.77 C 850.92 879.20 857.48 877.17 863.38 879.76 C 863.30 881.30 863.23 882.86 863.18 884.42 L 862.56 884.10 C 857.59 881.16 851.60 881.87 846.08 881.21 C 845.73 880.60 845.05 879.38 844.71 878.77 Z" />
</g>
</svg>
